<?xml version="1.0" encoding="utf-8"?>
<!-- Generator: Adobe Illustrator 27.0.0, SVG Export Plug-In . SVG Version: 6.00 Build 0)  -->
<svg version="1.1" id="Layer_1" xmlns="http://www.w3.org/2000/svg" xmlns:xlink="http://www.w3.org/1999/xlink" x="0px" y="0px"
	 viewBox="0 0 201 46" style="enable-background:new 0 0 201 46;" xml:space="preserve">
<style type="text/css">
	.st0{fill:#F26530;}
	.st1{fill:#FFFFFF;filter:url(#Adobe_OpacityMaskFilter);}
	.st2{mask:url(#mask0_15_3111_00000023241415116674822170000008208276878484836240_);}
	.st3{fill:#FFFFFF;}
	.st4{fill:#FFFFFF;filter:url(#Adobe_OpacityMaskFilter_00000121270905392258019510000013332960093958202498_);}
	.st5{mask:url(#mask1_15_3111_00000173879965644087162230000006694337776427242624_);}
	.st6{fill:#FFFFFF;filter:url(#Adobe_OpacityMaskFilter_00000113340620330047127760000016859341863161854601_);}
	.st7{mask:url(#mask2_15_3111_00000091003878322611769740000003941454251041635474_);}
</style>
<g>
	<path class="st0" d="M8.8,0h183.4c4.4,0,8,3.6,8,8v19c0,4.4-3.6,8-8,8H8.8c-4.4,0-8-3.6-8-8V8C0.8,3.6,4.4,0,8.8,0z"/>
	<defs>
		<filter id="Adobe_OpacityMaskFilter" filterUnits="userSpaceOnUse" x="53" y="19.1" width="5.9" height="7.9">
			<feColorMatrix  type="matrix" values="1 0 0 0 0  0 1 0 0 0  0 0 1 0 0  0 0 0 1 0"/>
		</filter>
	</defs>
	
		<mask maskUnits="userSpaceOnUse" x="53" y="19.1" width="5.9" height="7.9" id="mask0_15_3111_00000023241415116674822170000008208276878484836240_">
		<path class="st1" d="M53,19H59v8H53V19z"/>
	</mask>
	<g class="st2">
		<path class="st3" d="M58.9,19.1H53V27h5.3c0.1,0,0.2-0.1,0.2-0.2L58.9,19.1z"/>
	</g>
	<defs>
		
			<filter id="Adobe_OpacityMaskFilter_00000083088138743660888910000003436933200878333573_" filterUnits="userSpaceOnUse" x="46.1" y="19.1" width="5.9" height="7.9">
			<feColorMatrix  type="matrix" values="1 0 0 0 0  0 1 0 0 0  0 0 1 0 0  0 0 0 1 0"/>
		</filter>
	</defs>
	
		<mask maskUnits="userSpaceOnUse" x="46.1" y="19.1" width="5.9" height="7.9" id="mask1_15_3111_00000173879965644087162230000006694337776427242624_">
		<path style="fill:#FFFFFF;filter:url(#Adobe_OpacityMaskFilter_00000083088138743660888910000003436933200878333573_);" d="
			M46.1,19H52v8h-5.9V19z"/>
	</mask>
	<g class="st5">
		<path class="st3" d="M51.9,19.1h-5.9l0.4,7.7c0,0.1,0.1,0.2,0.2,0.2h5.2V19.1z"/>
	</g>
	<path class="st3" d="M60.3,14.7H53V18h7c0.1,0,0.2-0.1,0.2-0.2l0.2-2.9C60.5,14.8,60.4,14.7,60.3,14.7z"/>
	<defs>
		
			<filter id="Adobe_OpacityMaskFilter_00000023244372496852425520000005223967852714511505_" filterUnits="userSpaceOnUse" x="44.6" y="14.7" width="7.4" height="3.3">
			<feColorMatrix  type="matrix" values="1 0 0 0 0  0 1 0 0 0  0 0 1 0 0  0 0 0 1 0"/>
		</filter>
	</defs>
	
		<mask maskUnits="userSpaceOnUse" x="44.6" y="14.7" width="7.4" height="3.3" id="mask2_15_3111_00000091003878322611769740000003941454251041635474_">
		<path style="fill:#FFFFFF;filter:url(#Adobe_OpacityMaskFilter_00000023244372496852425520000005223967852714511505_);" d="
			M44.5,14.7H52V18h-7.5V14.7z"/>
	</mask>
	<g class="st7">
		<path class="st3" d="M44.6,14.9l0.2,2.9c0,0.1,0.1,0.2,0.2,0.2h6.9v-3.3h-7.2C44.6,14.7,44.5,14.8,44.6,14.9z"/>
	</g>
	<path class="st3" d="M49.3,9.7c0.1-0.1,0.3-0.1,0.5,0c0.4,0.1,0.8,0.4,1.1,0.8c0.4,0.5,1,1.9,1.2,2.6c-0.6-0.4-1.9-1.2-2.3-1.7
		c-0.3-0.3-0.5-0.7-0.6-1.1C49.1,10,49.2,9.8,49.3,9.7z M52.7,13.2c0.3-0.6,1-1.7,1.4-2.1c0.4-0.3,0.8-0.5,1.1-0.6
		c0.1,0,0.3,0,0.4,0.1c0.1,0.1,0.1,0.3,0,0.6c-0.1,0.3-0.3,0.6-0.6,0.9C54.6,12.4,53.4,12.9,52.7,13.2z M55.1,12.8
		c0.2-0.1,0.4-0.2,0.6-0.2c0.2-0.1,0.4-0.2,0.6-0.4c0.4-0.4,0.7-0.9,0.8-1.4c0.1-0.5,0-1-0.3-1.3c-0.3-0.4-0.8-0.5-1.4-0.5
		c-0.5,0.1-0.9,0.3-1.3,0.6c-0.6,0.6-1.3,2.3-1.6,3.2c-0.2-1-0.6-3.1-1.3-3.9c-0.4-0.4-0.8-0.8-1.3-0.9c-0.6-0.2-1.2-0.1-1.7,0.3
		c-0.4,0.3-0.6,0.8-0.6,1.4c0,0.6,0.2,1.2,0.6,1.6c0,0,0,0,0.1,0.1c0.2,0.2,0.5,0.4,0.7,0.6c0.3,0.2,0.6,0.4,1,0.5
		c0.3,0.2,0.7,0.3,1,0.5c0.3,0.1,1,0.4,1.1,0.5c0.1,0,0.2,0,0.3,0c0.2,0,0.5-0.1,0.7-0.1c0.3-0.1,0.5-0.1,0.8-0.2
		c0.3-0.1,0.6-0.2,0.9-0.3C54.9,12.9,55,12.9,55.1,12.8z"/>
	<path class="st3" d="M51.7,13.9c-1.7-0.6-3.7-1.2-5.6-2.5c-0.3-0.2-0.7,0-0.8,0.3l-0.1,0.7c0,0.2,0.1,0.5,0.3,0.6
		c0.8,0.3,2.2,0.7,6.2,1.2C51.8,14.2,51.8,14,51.7,13.9z"/>
	<path class="st3" d="M53.2,14c1.4-0.4,3.8-1,5.5-2c0.3-0.2,0.6,0,0.6,0.3l0.1,0.6c0,0.2-0.1,0.4-0.3,0.4c-0.7,0.2-2.5,0.8-5.9,0.9
		C53.1,14.2,53.1,14,53.2,14z"/>
	<path class="st3" d="M79.4,23.1c-0.8,0-1.4-0.1-2-0.3c-0.5-0.2-1-0.5-1.3-1c-0.3-0.4-0.5-1-0.5-1.8l-0.3-6.4h2.3l0.3,5.7
		c0,0.4,0.1,0.8,0.2,1c0.1,0.2,0.3,0.4,0.5,0.5c0.2,0.1,0.5,0.1,0.9,0.1c0.4,0,0.7,0.1,0.9,0.3c0.2,0.2,0.3,0.5,0.3,0.8
		c0,0.3-0.1,0.6-0.3,0.8C80.1,23,79.8,23.1,79.4,23.1z M76.4,21.6c-0.7,0.2-1.4,0.2-2.1,0.2c-0.7,0-1.3-0.1-1.8-0.4
		c-0.5-0.2-0.9-0.5-1.2-1c-0.3-0.4-0.4-0.9-0.4-1.6c0-0.6,0.1-1.1,0.4-1.5c0.3-0.5,0.6-0.9,1.1-1.2c0.5-0.4,1-0.7,1.6-0.9
		s1.3-0.4,2-0.6l0.2,2.3c-0.5,0-0.9,0.1-1.2,0.2c-0.4,0.1-0.7,0.2-0.9,0.4c-0.3,0.2-0.5,0.3-0.6,0.5c-0.1,0.2-0.2,0.4-0.2,0.6
		c0,0.2,0.1,0.3,0.2,0.4s0.3,0.2,0.5,0.3c0.2,0.1,0.5,0.1,0.7,0.1c0.3,0,0.6,0,0.8,0c0.3,0,0.6-0.1,0.9-0.2L76.4,21.6z M76.5,11.9
		c-0.3,0-0.6-0.1-0.8-0.3c-0.2-0.2-0.3-0.5-0.3-0.8c0-0.3,0.1-0.6,0.3-0.8c0.2-0.2,0.5-0.3,0.8-0.3c0.3,0,0.6,0.1,0.8,0.3
		s0.3,0.5,0.3,0.8c0,0.3-0.1,0.6-0.3,0.8C77,11.8,76.8,11.9,76.5,11.9z M73.7,11.9c-0.3,0-0.6-0.1-0.8-0.3c-0.2-0.2-0.3-0.5-0.3-0.8
		c0-0.3,0.1-0.6,0.3-0.8c0.2-0.2,0.5-0.3,0.8-0.3c0.3,0,0.6,0.1,0.8,0.3c0.2,0.2,0.3,0.5,0.3,0.8c0,0.3-0.1,0.6-0.3,0.8
		C74.3,11.8,74,11.9,73.7,11.9z M79.3,23.1l0.2-2.2c0.6,0,1.1,0,1.5-0.1c0.3-0.1,0.6-0.2,0.7-0.4c0.1-0.2,0.2-0.4,0.2-0.8
		c0-0.3,0-0.7-0.1-1.1c-0.1-0.4-0.2-0.8-0.3-1.3c-0.1-0.4-0.2-0.9-0.4-1.2l2.2-0.6c0.1,0.4,0.3,0.8,0.4,1.3c0.1,0.5,0.2,1,0.3,1.5
		c0.1,0.5,0.1,1,0.1,1.5c0,0.7-0.1,1.3-0.4,1.8c-0.2,0.4-0.6,0.8-1,1c-0.4,0.2-0.9,0.4-1.5,0.5C80.7,23,80,23.1,79.3,23.1z
		 M83.3,26.8c-0.3,0-0.6-0.1-0.8-0.3c-0.2-0.2-0.3-0.5-0.3-0.8c0-0.3,0.1-0.6,0.3-0.8c0.2-0.2,0.5-0.3,0.8-0.3
		c0.3,0,0.6,0.1,0.8,0.3c0.2,0.2,0.3,0.5,0.3,0.8c0,0.3-0.1,0.6-0.3,0.8C83.9,26.7,83.6,26.8,83.3,26.8z M80.5,26.8
		c-0.3,0-0.6-0.1-0.8-0.3c-0.2-0.2-0.3-0.5-0.3-0.8c0-0.3,0.1-0.6,0.3-0.8c0.2-0.2,0.5-0.3,0.8-0.3c0.3,0,0.6,0.1,0.8,0.3
		c0.2,0.2,0.3,0.5,0.3,0.8c0,0.3-0.1,0.6-0.3,0.8C81.1,26.7,80.8,26.8,80.5,26.8z M88.6,20.8c0.5,0,0.8,0,1.1-0.1
		c0.3-0.1,0.4-0.2,0.5-0.3c0.1-0.1,0.1-0.3,0.1-0.4c0-0.3-0.1-0.6-0.2-0.9c-0.1-0.3-0.3-0.7-0.5-1.1c-0.2-0.4-0.4-0.7-0.7-1.1
		c-0.2-0.3-0.4-0.6-0.6-0.9l1.9-1.3c0.5,0.6,0.9,1.2,1.2,1.8c0.3,0.6,0.6,1.2,0.8,1.7c0.2,0.5,0.4,0.9,0.4,1.3
		c0.1,0.3,0.2,0.6,0.4,0.8c0.2,0.2,0.4,0.3,0.6,0.4c0.2,0.1,0.5,0.1,0.7,0.1c0.4,0,0.7,0.1,0.9,0.3c0.2,0.2,0.3,0.5,0.3,0.8
		c0,0.3-0.1,0.6-0.3,0.8c-0.2,0.2-0.5,0.3-1,0.3c-0.5,0-0.9-0.1-1.2-0.2c-0.4-0.1-0.7-0.3-0.9-0.6c-0.2-0.3-0.5-0.6-0.6-1.1l1,0.2
		c-0.1,0.3-0.3,0.6-0.6,0.8c-0.3,0.2-0.7,0.4-1.2,0.6c-0.5,0.1-1.1,0.2-1.7,0.2c-0.3,0-0.7,0-1.1-0.1c-0.4-0.1-0.8-0.1-1.2-0.2
		c-0.4-0.1-0.7-0.2-1-0.4l0.8-2c0.4,0.2,0.8,0.3,1.1,0.4C87.9,20.8,88.3,20.8,88.6,20.8z M94.2,23.1l0.2-2.2c0.4,0,0.7,0,1-0.1
		c0.3-0.1,0.5-0.2,0.7-0.4c0.2-0.2,0.4-0.6,0.5-1c0.1-0.4,0.3-1,0.4-1.8l2.1,0.4c0,0.2-0.1,0.3-0.1,0.6c0,0.2-0.1,0.4-0.1,0.7
		c0,0.2,0,0.4,0,0.6s0,0.4,0.1,0.5c0.1,0.1,0.2,0.3,0.4,0.4c0.2,0.1,0.4,0.2,0.7,0.2c0.3,0.1,0.6,0.1,1,0.1c0.4,0,0.7,0.1,0.9,0.3
		c0.2,0.2,0.3,0.5,0.3,0.8c0,0.3-0.1,0.6-0.3,0.8c-0.2,0.2-0.5,0.3-0.9,0.3c-0.5,0-0.9,0-1.3-0.1c-0.4-0.1-0.7-0.2-1-0.4
		c-0.3-0.2-0.5-0.4-0.7-0.7c-0.2-0.3-0.3-0.7-0.3-1.1h0.8c-0.2,0.5-0.4,0.9-0.7,1.2c-0.3,0.3-0.6,0.5-1,0.7
		c-0.4,0.1-0.7,0.2-1.1,0.3C95,23.1,94.6,23.1,94.2,23.1z M98.7,26.8c-0.3,0-0.6-0.1-0.8-0.3c-0.2-0.2-0.3-0.5-0.3-0.8
		c0-0.3,0.1-0.6,0.3-0.8c0.2-0.2,0.5-0.3,0.8-0.3c0.3,0,0.6,0.1,0.8,0.3c0.2,0.2,0.3,0.5,0.3,0.8c0,0.3-0.1,0.6-0.3,0.8
		C99.3,26.7,99,26.8,98.7,26.8z M95.9,26.8c-0.3,0-0.6-0.1-0.8-0.3c-0.2-0.2-0.3-0.5-0.3-0.8c0-0.3,0.1-0.6,0.3-0.8
		c0.2-0.2,0.5-0.3,0.8-0.3c0.3,0,0.6,0.1,0.8,0.3c0.2,0.2,0.3,0.5,0.3,0.8c0,0.3-0.1,0.6-0.3,0.8C96.5,26.7,96.2,26.8,95.9,26.8z
		 M100.7,23.1l0.2-2.2c0.7,0,1.4,0,2-0.1c0.6-0.1,1.1-0.2,1.6-0.4c0.5-0.2,0.8-0.4,1.1-0.6c0.3-0.2,0.5-0.5,0.7-0.7
		c0.2-0.3,0.2-0.5,0.2-0.8c0-0.1,0-0.3-0.1-0.4c-0.1-0.1-0.2-0.2-0.3-0.3c-0.2-0.1-0.4-0.1-0.7-0.1c-0.1,0-0.3,0-0.5,0
		c-0.2,0-0.4,0.1-0.6,0.1c-0.2,0.1-0.4,0.1-0.5,0.2c0.2,0.2,0.5,0.4,0.7,0.7c0.3,0.3,0.5,0.5,0.8,0.8c0.3,0.3,0.5,0.5,0.7,0.8
		c0.2,0.1,0.5,0.2,0.7,0.3c0.3,0.1,0.6,0.2,0.9,0.2c0.3,0.1,0.7,0.1,1,0.2c0.4,0,0.7,0,1.1,0c0.4,0,0.7,0.1,0.9,0.3
		c0.2,0.2,0.3,0.5,0.3,0.8c0,0.3-0.1,0.6-0.3,0.8c-0.2,0.2-0.5,0.3-1,0.3c-0.9,0-1.6-0.1-2.3-0.2c-0.7-0.1-1.3-0.3-1.8-0.6
		c-0.5-0.3-1-0.6-1.4-1c-0.1-0.2-0.3-0.5-0.5-0.7c-0.2-0.3-0.5-0.5-0.7-0.8c-0.2-0.2-0.5-0.4-0.7-0.6c-0.1,0-0.1-0.2-0.2-0.3
		c-0.1-0.2-0.1-0.4-0.2-0.6c-0.1-0.2-0.1-0.4-0.1-0.4c0-0.2,0.1-0.5,0.3-0.8c0.2-0.3,0.5-0.5,0.9-0.8c0.4-0.2,0.8-0.4,1.3-0.6
		c0.5-0.2,1-0.2,1.5-0.2c0.7,0,1.2,0.1,1.6,0.3c0.4,0.2,0.8,0.5,1,0.8c0.2,0.3,0.3,0.7,0.3,1.2c0,0.5-0.1,1-0.3,1.5
		c-0.2,0.5-0.6,1-1,1.4c-0.4,0.4-1,0.8-1.6,1.2c-0.6,0.3-1.4,0.6-2.2,0.8C102.7,23,101.8,23.1,100.7,23.1z M109.6,23.1l0.2-2.2
		c0.5,0,0.8,0,1.1-0.1c0.2-0.1,0.3-0.3,0.4-0.6c0-0.3,0.1-0.7,0-1.2l-0.3-7.6h2.3l0.3,7.7c0,0.6,0,1.2-0.1,1.7
		c-0.1,0.5-0.2,0.9-0.5,1.3c-0.3,0.4-0.7,0.6-1.2,0.8C111.2,23,110.5,23.1,109.6,23.1z M115.6,23l-0.3-11.7h2.2l0.3,11.7H115.6z
		 M131.6,23.1c-0.8,0-1.4-0.1-2-0.3c-0.5-0.2-1-0.5-1.3-1c-0.3-0.4-0.5-1-0.5-1.8l-0.3-6.4h2.3l0.3,5.7c0,0.4,0.1,0.8,0.2,1
		c0.1,0.2,0.3,0.4,0.5,0.5c0.2,0.1,0.5,0.1,0.9,0.1c0.4,0,0.7,0.1,0.9,0.3c0.2,0.2,0.3,0.5,0.3,0.8c0,0.3-0.1,0.6-0.3,0.8
		C132.3,23,132,23.1,131.6,23.1z M128.7,21.6c-0.7,0.2-1.4,0.2-2.1,0.2c-0.7,0-1.3-0.1-1.8-0.4c-0.5-0.2-0.9-0.5-1.2-1
		c-0.3-0.4-0.4-0.9-0.4-1.6c0-0.6,0.1-1.1,0.4-1.5c0.3-0.5,0.6-0.9,1.1-1.2c0.5-0.4,1-0.7,1.6-0.9s1.3-0.4,2-0.6l0.2,2.3
		c-0.5,0-0.9,0.1-1.2,0.2c-0.4,0.1-0.7,0.2-0.9,0.4c-0.3,0.2-0.5,0.3-0.6,0.5c-0.1,0.2-0.2,0.4-0.2,0.6c0,0.2,0.1,0.3,0.2,0.4
		s0.3,0.2,0.5,0.3c0.2,0.1,0.5,0.1,0.7,0.1c0.3,0,0.6,0,0.8,0c0.3,0,0.6-0.1,0.9-0.2L128.7,21.6z M128.7,11.9
		c-0.3,0-0.6-0.1-0.8-0.3c-0.2-0.2-0.3-0.5-0.3-0.8c0-0.3,0.1-0.6,0.3-0.8c0.2-0.2,0.5-0.3,0.8-0.3c0.3,0,0.6,0.1,0.8,0.3
		s0.3,0.5,0.3,0.8c0,0.3-0.1,0.6-0.3,0.8C129.3,11.8,129,11.9,128.7,11.9z M126,11.9c-0.3,0-0.6-0.1-0.8-0.3
		c-0.2-0.2-0.3-0.5-0.3-0.8c0-0.3,0.1-0.6,0.3-0.8c0.2-0.2,0.5-0.3,0.8-0.3c0.3,0,0.6,0.1,0.8,0.3c0.2,0.2,0.3,0.5,0.3,0.8
		c0,0.3-0.1,0.6-0.3,0.8C126.5,11.8,126.3,11.9,126,11.9z M131.6,23.1l0.2-2.2c0.3,0,0.5-0.1,0.6-0.2c0.1-0.1,0.3-0.3,0.4-0.6
		c0.1-0.3,0.3-0.6,0.6-1.1c0.3-0.5,0.5-0.9,0.8-1.3c0.3-0.4,0.6-0.6,0.9-0.8c0.3-0.2,0.6-0.4,0.9-0.4c0.3-0.1,0.6-0.1,0.9-0.1
		c0.4,0,0.8,0.1,1.1,0.3c0.4,0.2,0.7,0.4,1,0.8c0.3,0.4,0.6,0.9,0.9,1.6c0.2,0.5,0.4,0.8,0.6,1.1c0.2,0.3,0.4,0.4,0.6,0.5
		c0.2,0.1,0.4,0.1,0.7,0.1c0.4,0,0.7,0.1,0.9,0.3c0.2,0.2,0.3,0.5,0.3,0.8c0,0.3-0.1,0.6-0.3,0.8c-0.2,0.2-0.5,0.3-0.9,0.3
		c-0.5,0-1-0.1-1.4-0.3c-0.4-0.2-0.8-0.4-1-0.8l0.5-0.4c-0.1,0.2-0.2,0.5-0.4,0.7c-0.2,0.2-0.4,0.5-0.7,0.6c-0.3,0.2-0.6,0.3-1,0.3
		c-0.3,0-0.6-0.1-0.9-0.2c-0.4-0.1-0.7-0.3-1.1-0.5c-0.4-0.2-0.7-0.6-1-1c-0.2,0.4-0.4,0.7-0.7,0.9c-0.2,0.2-0.5,0.3-0.9,0.4
		C132.5,23,132.1,23.1,131.6,23.1z M135.3,19.8c0.1,0.2,0.2,0.3,0.4,0.5c0.1,0.2,0.3,0.3,0.5,0.4c0.2,0.1,0.4,0.2,0.6,0.3
		c0.2,0.1,0.4,0.1,0.6,0.1c0.2,0,0.4-0.1,0.5-0.2c0.1-0.2,0.1-0.4,0-0.8c-0.1-0.1-0.1-0.3-0.2-0.5c-0.1-0.2-0.2-0.4-0.3-0.5
		c-0.1-0.2-0.2-0.3-0.4-0.4c-0.1-0.1-0.3-0.2-0.4-0.2c-0.1,0-0.3,0-0.4,0.1c-0.2,0.1-0.3,0.2-0.4,0.4
		C135.6,19.2,135.4,19.5,135.3,19.8z M141.6,23.1l0.2-2.2c0.4,0,0.7,0,1-0.1c0.3-0.1,0.5-0.2,0.7-0.4c0.2-0.2,0.4-0.6,0.5-1
		c0.1-0.4,0.3-1,0.4-1.8l2.1,0.4c0,0.2-0.1,0.3-0.1,0.6c0,0.2-0.1,0.4-0.1,0.7c0,0.2,0,0.4,0,0.6s0,0.4,0.1,0.5
		c0.1,0.1,0.2,0.3,0.4,0.4c0.2,0.1,0.4,0.2,0.7,0.2c0.3,0.1,0.6,0.1,1,0.1c0.4,0,0.7,0.1,0.9,0.3c0.2,0.2,0.3,0.5,0.3,0.8
		c0,0.3-0.1,0.6-0.3,0.8c-0.2,0.2-0.5,0.3-0.9,0.3c-0.5,0-0.9,0-1.3-0.1c-0.4-0.1-0.7-0.2-1-0.4c-0.3-0.2-0.5-0.4-0.7-0.7
		c-0.2-0.3-0.3-0.7-0.3-1.1h0.8c-0.2,0.5-0.4,0.9-0.7,1.2c-0.3,0.3-0.6,0.5-1,0.7c-0.4,0.1-0.7,0.2-1.1,0.3
		C142.3,23.1,142,23.1,141.6,23.1z M146,26.8c-0.3,0-0.6-0.1-0.8-0.3c-0.2-0.2-0.3-0.5-0.3-0.8c0-0.3,0.1-0.6,0.3-0.8
		c0.2-0.2,0.5-0.3,0.8-0.3c0.3,0,0.6,0.1,0.8,0.3s0.3,0.5,0.3,0.8c0,0.3-0.1,0.6-0.3,0.8C146.6,26.7,146.3,26.8,146,26.8z
		 M143.3,26.8c-0.3,0-0.6-0.1-0.8-0.3c-0.2-0.2-0.3-0.5-0.3-0.8c0-0.3,0.1-0.6,0.3-0.8c0.2-0.2,0.5-0.3,0.8-0.3
		c0.3,0,0.6,0.1,0.8,0.3c0.2,0.2,0.3,0.5,0.3,0.8c0,0.3-0.1,0.6-0.3,0.8C143.8,26.7,143.6,26.8,143.3,26.8z M148.1,23.1l0.2-2.2
		c0.9,0,1.6,0,2.1,0c0.5,0,1,0,1.3-0.1c0.3,0,0.5-0.1,0.7-0.1c0.1-0.1,0.3-0.1,0.4-0.2c0.1-0.1,0.2-0.2,0.3-0.4
		c0.1-0.2,0.2-0.4,0.2-0.7c0.1-0.3,0.1-0.6,0.1-1c0-0.5,0-1-0.1-1.3c-0.1-0.4-0.2-0.6-0.4-0.8c-0.2-0.2-0.4-0.3-0.6-0.3
		c-0.2,0-0.3,0.1-0.5,0.2c-0.1,0.1-0.3,0.3-0.4,0.4c-0.1,0.2-0.1,0.4-0.1,0.7c0,0.1,0,0.3,0.1,0.4s0.2,0.2,0.4,0.2
		c0.2,0.1,0.4,0.1,0.6,0.1c0.2,0,0.5,0,0.7-0.1c0.3-0.1,0.5-0.1,0.7-0.3l0.1,1.9c-0.2,0.1-0.4,0.2-0.6,0.3c-0.2,0.1-0.5,0.2-0.7,0.2
		c-0.2,0-0.5,0.1-0.8,0.1c-0.6,0-1.1-0.1-1.5-0.2c-0.4-0.2-0.7-0.4-0.9-0.8s-0.3-0.8-0.3-1.4c0-0.5,0.1-0.9,0.2-1.4
		c0.2-0.5,0.4-0.9,0.7-1.3c0.3-0.4,0.7-0.7,1.1-0.9c0.4-0.2,0.9-0.4,1.3-0.4c0.7,0,1.3,0.2,1.8,0.6c0.5,0.4,0.8,1,1.1,1.7
		c0.2,0.7,0.4,1.5,0.4,2.4c0,0.8-0.1,1.4-0.3,2c-0.2,0.6-0.5,1-0.8,1.3c-0.3,0.3-0.5,0.5-0.9,0.7c-0.3,0.2-0.7,0.3-1.2,0.4
		c-0.5,0.1-1.1,0.2-1.7,0.2C149.9,23.1,149.1,23.1,148.1,23.1z M153.7,12.3c-0.3,0-0.6-0.1-0.8-0.3c-0.2-0.2-0.3-0.5-0.3-0.8
		c0-0.3,0.1-0.6,0.3-0.8c0.2-0.2,0.5-0.3,0.8-0.3c0.3,0,0.6,0.1,0.8,0.3s0.3,0.5,0.3,0.8c0,0.3-0.1,0.6-0.3,0.8
		C154.3,12.2,154,12.3,153.7,12.3z M151,12.2c-0.3,0-0.6-0.1-0.8-0.3c-0.2-0.2-0.3-0.5-0.3-0.8c0-0.3,0.1-0.6,0.3-0.8
		c0.2-0.2,0.5-0.3,0.8-0.3c0.3,0,0.6,0.1,0.8,0.3s0.3,0.5,0.3,0.8c0,0.3-0.1,0.6-0.3,0.8C151.5,12.1,151.3,12.2,151,12.2z"/>
	<path class="st0" d="M100.5,46l12.1-12.8H88.4L100.5,46z"/>
</g>
</svg>
