<svg width="191" height="35" viewBox="0 0 191 35" fill="none" xmlns="http://www.w3.org/2000/svg">
<path d="M18.329 0H24.8187L6.47936 17.5L24.8187 35H18.329L-0.000976562 17.5L18.329 0Z" fill="#F26530"/>
<path d="M29.4979 0H35.9876L17.6483 17.5L35.9876 35H29.4979L11.168 17.5L29.4979 0Z" fill="#F26530"/>
<rect x="27.3008" width="163.699" height="35" rx="8" fill="#F26530"/>
<mask id="mask0_15_3076" style="mask-type:luminance" maskUnits="userSpaceOnUse" x="55" y="19" width="7" height="8">
<path d="M55.7832 19.0429H61.7295V27H55.7832V19.0429Z" fill="white"/>
</mask>
<g mask="url(#mask0_15_3076)">
<path d="M61.6869 19.0936H55.7939V26.9986H61.0673C61.177 26.9986 61.2672 26.9124 61.2721 26.8029L61.6869 19.0936Z" fill="white"/>
</g>
<mask id="mask1_15_3076" style="mask-type:luminance" maskUnits="userSpaceOnUse" x="48" y="19" width="7" height="8">
<path d="M48.8076 19.043H54.7539V27H48.8076V19.043Z" fill="white"/>
</mask>
<g mask="url(#mask1_15_3076)">
<path d="M54.6991 19.0936H48.8379L49.2524 26.803C49.2573 26.9124 49.3473 26.9986 49.457 26.9986H54.6991V19.0936Z" fill="white"/>
</g>
<path d="M63.007 14.7195H55.7939V18.0109H62.7609C62.8672 18.0109 62.9561 17.9296 62.965 17.8233L63.2112 14.9415C63.2212 14.822 63.127 14.7195 63.007 14.7195Z" fill="white"/>
<mask id="mask2_15_3076" style="mask-type:luminance" maskUnits="userSpaceOnUse" x="47" y="14" width="8" height="5">
<path d="M47.3008 14.6976H54.7555V18.0138H47.3008V14.6976Z" fill="white"/>
</mask>
<g mask="url(#mask2_15_3076)">
<path d="M47.3142 14.9415L47.5603 17.8233C47.5695 17.9296 47.6582 18.0109 47.7645 18.0109H54.6997V14.7195H47.5183C47.3984 14.7195 47.3042 14.822 47.3142 14.9415Z" fill="white"/>
</g>
<path d="M52.0524 9.66834C52.1804 9.56315 52.3765 9.59173 52.5185 9.63395C52.8725 9.73959 53.2848 10.0471 53.6216 10.457C54.0603 10.991 54.6039 12.3875 54.8596 13.0864C54.2242 12.6996 52.9601 11.8953 52.5212 11.3608C52.2373 11.0153 52.0374 10.6385 51.9584 10.3C51.8894 10.0045 51.9238 9.77398 52.0524 9.66834ZM55.4986 13.1659C55.8157 12.587 56.4784 11.4345 56.9345 11.0243C57.2844 10.7096 57.6869 10.4945 58.0114 10.4491C58.1418 10.4311 58.3176 10.4322 58.4159 10.5414C58.5146 10.6513 58.5142 10.8579 58.4141 11.108C58.2997 11.3943 58.0744 11.6983 57.7794 11.9636C57.3235 12.3739 56.1074 12.9113 55.4986 13.1659ZM57.8796 12.8423C58.0742 12.7692 58.2665 12.6911 58.4539 12.6004C58.6732 12.4945 58.8936 12.3784 59.0761 12.2142C59.4946 11.8377 59.7747 11.3555 59.8647 10.8565C59.957 10.3444 59.8397 9.87516 59.5339 9.53545C59.2034 9.16761 58.6881 9.00211 58.1211 9.08162C57.6612 9.14594 57.2 9.36839 56.8223 9.7081C56.1878 10.2787 55.5234 12.0364 55.2225 12.9059C55.0412 11.9107 54.5923 9.76795 53.9689 9.00926C53.6055 8.56681 53.1291 8.24073 52.6275 8.09132C52.0091 7.90706 51.4072 8.00444 50.9763 8.35821C50.5783 8.68541 50.3682 9.18815 50.3847 9.77443C50.4006 10.3457 50.631 10.9305 51.0337 11.4207C51.0525 11.4435 51.0728 11.4651 51.0927 11.4868C51.2959 11.7095 51.5476 11.8859 51.7993 12.0492C52.1078 12.2495 52.4352 12.4264 52.7637 12.591C53.0952 12.757 53.4322 12.9178 53.7739 13.0607C54.0551 13.1784 54.7707 13.4964 54.8909 13.5371C54.9856 13.569 55.0968 13.5737 55.1953 13.567C55.4309 13.5509 55.652 13.4815 55.8821 13.4326C56.1539 13.3749 56.4261 13.299 56.6937 13.2237C56.9997 13.138 57.3056 13.0473 57.6052 12.9414C57.6969 12.909 57.7885 12.8762 57.8796 12.8423Z" fill="white"/>
<path d="M54.4257 13.9107C52.7125 13.351 50.6829 12.7456 48.7923 11.4323C48.487 11.2204 48.0649 11.397 48.0006 11.7629L47.876 12.4693C47.8349 12.702 47.9591 12.9325 48.1761 13.0259C48.9831 13.3732 50.3616 13.726 54.361 14.2027C54.541 14.2241 54.5982 13.9672 54.4257 13.9107Z" fill="white"/>
<path d="M55.9703 13.9691C57.4155 13.6106 59.812 12.9205 61.4489 11.9518C61.7131 11.7955 62.0503 11.9661 62.0814 12.2717L62.1417 12.8613C62.1616 13.0556 62.0452 13.2381 61.8609 13.3022C61.1748 13.5398 59.3302 14.0611 56.006 14.2134C55.8564 14.2203 55.8246 14.0053 55.9703 13.9691Z" fill="white"/>
<path d="M82.1079 23.08C81.3506 23.08 80.6946 22.984 80.1399 22.792C79.5959 22.5893 79.1746 22.2693 78.8759 21.832C78.5772 21.384 78.4066 20.7867 78.3639 20.04L78.0759 13.592H80.3319L80.6039 19.256C80.6252 19.6933 80.6946 20.0293 80.8119 20.264C80.9399 20.488 81.1212 20.6427 81.3559 20.728C81.5906 20.8027 81.8946 20.84 82.2679 20.84C82.6732 20.84 82.9612 20.9467 83.1319 21.16C83.3026 21.3627 83.3879 21.6187 83.3879 21.928C83.3879 22.2587 83.2759 22.536 83.0519 22.76C82.8386 22.9733 82.5239 23.08 82.1079 23.08ZM79.1799 21.592C78.4652 21.752 77.7772 21.8267 77.1159 21.816C76.4546 21.7947 75.8626 21.6773 75.3399 21.464C74.8172 21.24 74.4012 20.92 74.0919 20.504C73.7932 20.088 73.6439 19.56 73.6439 18.92C73.6439 18.3547 73.7666 17.8427 74.0119 17.384C74.2679 16.9147 74.6199 16.504 75.0679 16.152C75.5266 15.8 76.0599 15.5013 76.6679 15.256C77.2759 15.0107 77.9372 14.824 78.6519 14.696L78.8759 16.968C78.4172 16.9893 78.0012 17.0533 77.6279 17.16C77.2652 17.256 76.9506 17.384 76.6839 17.544C76.4279 17.704 76.2306 17.8853 76.0919 18.088C75.9532 18.28 75.8839 18.488 75.8839 18.712C75.8839 18.8933 75.9479 19.0427 76.0759 19.16C76.2039 19.2773 76.3746 19.3733 76.5879 19.448C76.8012 19.512 77.0466 19.5493 77.3239 19.56C77.6012 19.5707 77.8839 19.5547 78.1719 19.512C78.4706 19.4693 78.7639 19.4 79.0519 19.304L79.1799 21.592ZM79.2279 11.944C78.9186 11.944 78.6519 11.8373 78.4279 11.624C78.2146 11.4 78.1079 11.1387 78.1079 10.84C78.1079 10.5307 78.2146 10.264 78.4279 10.04C78.6519 9.816 78.9186 9.704 79.2279 9.704C79.5266 9.704 79.7826 9.816 79.9959 10.04C80.2092 10.264 80.3159 10.5307 80.3159 10.84C80.3159 11.1387 80.2092 11.4 79.9959 11.624C79.7826 11.8373 79.5266 11.944 79.2279 11.944ZM76.4599 11.928C76.1506 11.928 75.8839 11.8213 75.6599 11.608C75.4466 11.384 75.3399 11.1227 75.3399 10.824C75.3399 10.5147 75.4466 10.248 75.6599 10.024C75.8839 9.8 76.1506 9.688 76.4599 9.688C76.7586 9.688 77.0146 9.8 77.2279 10.024C77.4412 10.248 77.5479 10.5147 77.5479 10.824C77.5479 11.1227 77.4412 11.384 77.2279 11.608C77.0146 11.8213 76.7586 11.928 76.4599 11.928ZM82.1025 23.08L82.2625 20.84C82.9025 20.84 83.3932 20.808 83.7345 20.744C84.0759 20.68 84.3105 20.5627 84.4385 20.392C84.5772 20.2107 84.6465 19.9547 84.6465 19.624C84.6465 19.3253 84.6039 18.968 84.5185 18.552C84.4439 18.136 84.3425 17.704 84.2145 17.256C84.0972 16.808 83.9692 16.3973 83.8305 16.024L86.0385 15.416C86.1772 15.7787 86.3105 16.2 86.4385 16.68C86.5665 17.16 86.6732 17.656 86.7585 18.168C86.8439 18.6693 86.8865 19.1547 86.8865 19.624C86.8865 20.3493 86.7692 20.9413 86.5345 21.4C86.2999 21.848 85.9692 22.1947 85.5425 22.44C85.1265 22.6853 84.6252 22.856 84.0385 22.952C83.4519 23.0373 82.8065 23.08 82.1025 23.08ZM86.0545 26.792C85.7452 26.792 85.4785 26.68 85.2545 26.456C85.0412 26.2427 84.9345 25.9867 84.9345 25.688C84.9345 25.3787 85.0412 25.112 85.2545 24.888C85.4785 24.664 85.7452 24.552 86.0545 24.552C86.3532 24.552 86.6092 24.664 86.8225 24.888C87.0359 25.112 87.1425 25.3787 87.1425 25.688C87.1425 25.9867 87.0359 26.2427 86.8225 26.456C86.6092 26.68 86.3532 26.792 86.0545 26.792ZM83.2865 26.792C82.9772 26.792 82.7105 26.68 82.4865 26.456C82.2732 26.2427 82.1665 25.9867 82.1665 25.688C82.1665 25.3787 82.2732 25.112 82.4865 24.888C82.7105 24.664 82.9772 24.552 83.2865 24.552C83.5852 24.552 83.8412 24.664 84.0545 24.888C84.2679 25.112 84.3745 25.3787 84.3745 25.688C84.3745 25.9867 84.2679 26.2427 84.0545 26.456C83.8412 26.68 83.5852 26.792 83.2865 26.792ZM91.3405 20.84C91.8205 20.84 92.1885 20.7973 92.4445 20.712C92.7005 20.6267 92.8765 20.5147 92.9725 20.376C93.0685 20.2373 93.1165 20.088 93.1165 19.928C93.1165 19.672 93.0419 19.3733 92.8925 19.032C92.7539 18.6907 92.5779 18.3333 92.3645 17.96C92.1512 17.5867 91.9272 17.2293 91.6925 16.888C91.4685 16.5467 91.2659 16.248 91.0845 15.992L92.9885 14.728C93.4472 15.3467 93.8419 15.96 94.1725 16.568C94.5032 17.1653 94.7699 17.72 94.9725 18.232C95.1859 18.744 95.3352 19.1813 95.4205 19.544C95.5059 19.8853 95.6339 20.152 95.8045 20.344C95.9859 20.5253 96.1939 20.6533 96.4285 20.728C96.6632 20.8027 96.8979 20.84 97.1325 20.84C97.5379 20.84 97.8259 20.9467 97.9965 21.16C98.1779 21.3627 98.2685 21.6187 98.2685 21.928C98.2685 22.2587 98.1565 22.536 97.9325 22.76C97.7192 22.9733 97.3992 23.08 96.9725 23.08C96.5032 23.08 96.0925 23.016 95.7405 22.888C95.3885 22.76 95.0899 22.5573 94.8445 22.28C94.5992 22.0027 94.3912 21.6507 94.2205 21.224L95.1965 21.432C95.1112 21.7307 94.9139 22.008 94.6045 22.264C94.3059 22.5093 93.9059 22.712 93.4045 22.872C92.9139 23.0213 92.3325 23.096 91.6605 23.096C91.3405 23.096 90.9832 23.0693 90.5885 23.016C90.2045 22.9627 89.8205 22.8827 89.4365 22.776C89.0632 22.6693 88.7219 22.5307 88.4125 22.36L89.1965 20.328C89.5912 20.4987 89.9699 20.6267 90.3325 20.712C90.7059 20.7973 91.0419 20.84 91.3405 20.84ZM96.9932 23.08L97.1532 20.84C97.5372 20.84 97.8678 20.8027 98.1452 20.728C98.4225 20.6533 98.6572 20.504 98.8492 20.28C99.0412 20.0453 99.2012 19.704 99.3292 19.256C99.4678 18.808 99.5905 18.2107 99.6972 17.464L101.793 17.816C101.772 17.976 101.74 18.1627 101.697 18.376C101.665 18.5893 101.633 18.808 101.601 19.032C101.58 19.2453 101.569 19.448 101.569 19.64C101.569 19.832 101.606 20.0027 101.681 20.152C101.756 20.3013 101.873 20.4293 102.033 20.536C102.204 20.632 102.422 20.7067 102.689 20.76C102.966 20.8133 103.302 20.84 103.697 20.84C104.102 20.84 104.39 20.9467 104.561 21.16C104.732 21.3627 104.817 21.6187 104.817 21.928C104.817 22.2587 104.705 22.536 104.481 22.76C104.268 22.9733 103.953 23.08 103.537 23.08C103.057 23.08 102.62 23.0427 102.225 22.968C101.841 22.8933 101.505 22.7707 101.217 22.6C100.94 22.4187 100.71 22.184 100.529 21.896C100.358 21.5973 100.252 21.2347 100.209 20.808H100.977C100.785 21.32 100.54 21.7307 100.241 22.04C99.9532 22.3387 99.6278 22.5627 99.2652 22.712C98.9025 22.8613 98.5238 22.9573 98.1292 23C97.7452 23.0533 97.3665 23.08 96.9932 23.08ZM101.457 26.792C101.148 26.792 100.881 26.68 100.657 26.456C100.444 26.2427 100.337 25.9867 100.337 25.688C100.337 25.3787 100.444 25.112 100.657 24.888C100.881 24.664 101.148 24.552 101.457 24.552C101.756 24.552 102.012 24.664 102.225 24.888C102.438 25.112 102.545 25.3787 102.545 25.688C102.545 25.9867 102.438 26.2427 102.225 26.456C102.012 26.68 101.756 26.792 101.457 26.792ZM98.6892 26.792C98.3798 26.792 98.1132 26.68 97.8892 26.456C97.6758 26.2427 97.5692 25.9867 97.5692 25.688C97.5692 25.3787 97.6758 25.112 97.8892 24.888C98.1132 24.664 98.3798 24.552 98.6892 24.552C98.9878 24.552 99.2438 24.664 99.4572 24.888C99.6705 25.112 99.7772 25.3787 99.7772 25.688C99.7772 25.9867 99.6705 26.2427 99.4572 26.456C99.2438 26.68 98.9878 26.792 98.6892 26.792ZM103.476 23.08L103.636 20.84C104.383 20.84 105.055 20.792 105.652 20.696C106.249 20.5893 106.772 20.4507 107.22 20.28C107.679 20.1093 108.057 19.912 108.356 19.688C108.665 19.464 108.895 19.2293 109.044 18.984C109.204 18.728 109.284 18.4773 109.284 18.232C109.284 18.0933 109.247 17.9653 109.172 17.848C109.108 17.72 108.996 17.6187 108.836 17.544C108.676 17.4587 108.457 17.416 108.18 17.416C108.041 17.416 107.876 17.432 107.684 17.464C107.492 17.496 107.3 17.544 107.108 17.608C106.916 17.6613 106.735 17.736 106.564 17.832C106.788 18.0027 107.033 18.2213 107.3 18.488C107.567 18.744 107.833 19.016 108.1 19.304C108.367 19.5813 108.596 19.8533 108.788 20.12C109.012 20.216 109.257 20.312 109.524 20.408C109.801 20.4933 110.1 20.568 110.42 20.632C110.74 20.696 111.076 20.7493 111.428 20.792C111.78 20.824 112.143 20.84 112.516 20.84C112.921 20.84 113.209 20.9467 113.38 21.16C113.561 21.3627 113.652 21.6187 113.652 21.928C113.652 22.2587 113.54 22.536 113.316 22.76C113.092 22.9733 112.772 23.08 112.356 23.08C111.503 23.08 110.745 23.016 110.084 22.888C109.423 22.7493 108.831 22.552 108.308 22.296C107.796 22.0293 107.316 21.7093 106.868 21.336C106.74 21.112 106.559 20.872 106.324 20.616C106.1 20.3493 105.86 20.0933 105.604 19.848C105.359 19.6027 105.135 19.4 104.932 19.24C104.879 19.1973 104.815 19.0853 104.74 18.904C104.676 18.712 104.617 18.5147 104.564 18.312C104.511 18.0987 104.484 17.9493 104.484 17.864C104.484 17.6187 104.596 17.3573 104.82 17.08C105.055 16.8027 105.364 16.5467 105.748 16.312C106.143 16.0667 106.575 15.8693 107.044 15.72C107.524 15.56 108.009 15.48 108.5 15.48C109.161 15.48 109.711 15.5813 110.148 15.784C110.596 15.976 110.932 16.248 111.156 16.6C111.38 16.9413 111.492 17.3413 111.492 17.8C111.492 18.312 111.38 18.824 111.156 19.336C110.932 19.8373 110.601 20.312 110.164 20.76C109.737 21.208 109.199 21.608 108.548 21.96C107.908 22.3013 107.161 22.5733 106.308 22.776C105.465 22.9787 104.521 23.08 103.476 23.08ZM112.368 23.08L112.528 20.84C113.019 20.84 113.371 20.792 113.584 20.696C113.797 20.5893 113.925 20.3973 113.968 20.12C114.011 19.832 114.021 19.416 114 18.872L113.712 11.288H115.968L116.288 19.032C116.309 19.6507 116.283 20.2107 116.208 20.712C116.144 21.2027 115.979 21.624 115.712 21.976C115.456 22.328 115.056 22.6 114.512 22.792C113.979 22.984 113.264 23.08 112.368 23.08ZM118.398 23L118.062 11.288H120.302L120.638 23H118.398ZM134.358 23.08C133.601 23.08 132.945 22.984 132.39 22.792C131.846 22.5893 131.425 22.2693 131.126 21.832C130.827 21.384 130.657 20.7867 130.614 20.04L130.326 13.592H132.582L132.854 19.256C132.875 19.6933 132.945 20.0293 133.062 20.264C133.19 20.488 133.371 20.6427 133.606 20.728C133.841 20.8027 134.145 20.84 134.518 20.84C134.923 20.84 135.211 20.9467 135.382 21.16C135.553 21.3627 135.638 21.6187 135.638 21.928C135.638 22.2587 135.526 22.536 135.302 22.76C135.089 22.9733 134.774 23.08 134.358 23.08ZM131.43 21.592C130.715 21.752 130.027 21.8267 129.366 21.816C128.705 21.7947 128.113 21.6773 127.59 21.464C127.067 21.24 126.651 20.92 126.342 20.504C126.043 20.088 125.894 19.56 125.894 18.92C125.894 18.3547 126.017 17.8427 126.262 17.384C126.518 16.9147 126.87 16.504 127.318 16.152C127.777 15.8 128.31 15.5013 128.918 15.256C129.526 15.0107 130.187 14.824 130.902 14.696L131.126 16.968C130.667 16.9893 130.251 17.0533 129.878 17.16C129.515 17.256 129.201 17.384 128.934 17.544C128.678 17.704 128.481 17.8853 128.342 18.088C128.203 18.28 128.134 18.488 128.134 18.712C128.134 18.8933 128.198 19.0427 128.326 19.16C128.454 19.2773 128.625 19.3733 128.838 19.448C129.051 19.512 129.297 19.5493 129.574 19.56C129.851 19.5707 130.134 19.5547 130.422 19.512C130.721 19.4693 131.014 19.4 131.302 19.304L131.43 21.592ZM131.478 11.944C131.169 11.944 130.902 11.8373 130.678 11.624C130.465 11.4 130.358 11.1387 130.358 10.84C130.358 10.5307 130.465 10.264 130.678 10.04C130.902 9.816 131.169 9.704 131.478 9.704C131.777 9.704 132.033 9.816 132.246 10.04C132.459 10.264 132.566 10.5307 132.566 10.84C132.566 11.1387 132.459 11.4 132.246 11.624C132.033 11.8373 131.777 11.944 131.478 11.944ZM128.71 11.928C128.401 11.928 128.134 11.8213 127.91 11.608C127.697 11.384 127.59 11.1227 127.59 10.824C127.59 10.5147 127.697 10.248 127.91 10.024C128.134 9.8 128.401 9.688 128.71 9.688C129.009 9.688 129.265 9.8 129.478 10.024C129.691 10.248 129.798 10.5147 129.798 10.824C129.798 11.1227 129.691 11.384 129.478 11.608C129.265 11.8213 129.009 11.928 128.71 11.928ZM134.353 23.08L134.513 20.84C134.779 20.84 134.982 20.7867 135.121 20.68C135.259 20.5733 135.398 20.3867 135.537 20.12C135.675 19.8533 135.867 19.4907 136.113 19.032C136.379 18.52 136.657 18.0933 136.945 17.752C137.233 17.4 137.521 17.1227 137.809 16.92C138.107 16.7067 138.401 16.5573 138.689 16.472C138.987 16.376 139.281 16.328 139.569 16.328C139.963 16.328 140.331 16.4133 140.673 16.584C141.025 16.744 141.361 17.0267 141.681 17.432C142.001 17.8267 142.305 18.3707 142.593 19.064C142.795 19.544 142.998 19.912 143.201 20.168C143.403 20.424 143.611 20.6 143.825 20.696C144.049 20.792 144.273 20.84 144.497 20.84C144.902 20.84 145.19 20.9467 145.361 21.16C145.531 21.3627 145.617 21.6187 145.617 21.928C145.617 22.2587 145.505 22.536 145.281 22.76C145.057 22.9733 144.742 23.08 144.337 23.08C143.814 23.08 143.339 22.9947 142.913 22.824C142.486 22.6533 142.15 22.3973 141.905 22.056L142.369 21.704C142.273 21.928 142.129 22.1627 141.937 22.408C141.755 22.6533 141.515 22.8613 141.217 23.032C140.929 23.2027 140.582 23.288 140.177 23.288C139.91 23.288 139.595 23.2347 139.233 23.128C138.881 23.032 138.513 22.8667 138.129 22.632C137.755 22.3867 137.409 22.056 137.089 21.64C136.886 22.0133 136.662 22.3067 136.417 22.52C136.171 22.7227 135.883 22.8667 135.553 22.952C135.222 23.0373 134.822 23.08 134.353 23.08ZM138.017 19.752C138.123 19.912 138.251 20.072 138.401 20.232C138.55 20.392 138.715 20.536 138.897 20.664C139.078 20.7813 139.27 20.8773 139.473 20.952C139.686 21.0267 139.894 21.064 140.097 21.064C140.31 21.064 140.486 20.984 140.625 20.824C140.763 20.6533 140.769 20.4027 140.641 20.072C140.587 19.9333 140.513 19.7787 140.417 19.608C140.331 19.4267 140.23 19.256 140.113 19.096C140.006 18.936 139.883 18.8027 139.745 18.696C139.617 18.5893 139.483 18.536 139.345 18.536C139.206 18.536 139.062 18.5787 138.913 18.664C138.763 18.7493 138.614 18.8827 138.465 19.064C138.315 19.2347 138.166 19.464 138.017 19.752ZM144.337 23.08L144.497 20.84C144.881 20.84 145.212 20.8027 145.489 20.728C145.766 20.6533 146.001 20.504 146.193 20.28C146.385 20.0453 146.545 19.704 146.673 19.256C146.812 18.808 146.934 18.2107 147.041 17.464L149.137 17.816C149.116 17.976 149.084 18.1627 149.041 18.376C149.009 18.5893 148.977 18.808 148.945 19.032C148.924 19.2453 148.913 19.448 148.913 19.64C148.913 19.832 148.95 20.0027 149.025 20.152C149.1 20.3013 149.217 20.4293 149.377 20.536C149.548 20.632 149.766 20.7067 150.033 20.76C150.31 20.8133 150.646 20.84 151.041 20.84C151.446 20.84 151.734 20.9467 151.905 21.16C152.076 21.3627 152.161 21.6187 152.161 21.928C152.161 22.2587 152.049 22.536 151.825 22.76C151.612 22.9733 151.297 23.08 150.881 23.08C150.401 23.08 149.964 23.0427 149.569 22.968C149.185 22.8933 148.849 22.7707 148.561 22.6C148.284 22.4187 148.054 22.184 147.873 21.896C147.702 21.5973 147.596 21.2347 147.553 20.808H148.321C148.129 21.32 147.884 21.7307 147.585 22.04C147.297 22.3387 146.972 22.5627 146.609 22.712C146.246 22.8613 145.868 22.9573 145.473 23C145.089 23.0533 144.71 23.08 144.337 23.08ZM148.801 26.792C148.492 26.792 148.225 26.68 148.001 26.456C147.788 26.2427 147.681 25.9867 147.681 25.688C147.681 25.3787 147.788 25.112 148.001 24.888C148.225 24.664 148.492 24.552 148.801 24.552C149.1 24.552 149.356 24.664 149.569 24.888C149.782 25.112 149.889 25.3787 149.889 25.688C149.889 25.9867 149.782 26.2427 149.569 26.456C149.356 26.68 149.1 26.792 148.801 26.792ZM146.033 26.792C145.724 26.792 145.457 26.68 145.233 26.456C145.02 26.2427 144.913 25.9867 144.913 25.688C144.913 25.3787 145.02 25.112 145.233 24.888C145.457 24.664 145.724 24.552 146.033 24.552C146.332 24.552 146.588 24.664 146.801 24.888C147.014 25.112 147.121 25.3787 147.121 25.688C147.121 25.9867 147.014 26.2427 146.801 26.456C146.588 26.68 146.332 26.792 146.033 26.792ZM150.884 23.08L151.044 20.856C151.929 20.856 152.638 20.8507 153.172 20.84C153.716 20.8293 154.137 20.808 154.436 20.776C154.745 20.7333 154.974 20.6853 155.124 20.632C155.273 20.568 155.401 20.4987 155.508 20.424C155.636 20.328 155.742 20.2 155.828 20.04C155.924 19.8693 155.998 19.6453 156.052 19.368C156.105 19.0907 156.132 18.744 156.132 18.328C156.132 17.8053 156.084 17.368 155.988 17.016C155.902 16.6533 155.774 16.3813 155.604 16.2C155.444 16.0187 155.246 15.928 155.012 15.928C154.841 15.928 154.681 15.9867 154.532 16.104C154.382 16.2107 154.26 16.36 154.164 16.552C154.068 16.744 154.02 16.9627 154.02 17.208C154.02 17.3467 154.057 17.4693 154.132 17.576C154.206 17.6827 154.324 17.7627 154.484 17.816C154.644 17.8693 154.846 17.896 155.092 17.896C155.326 17.896 155.572 17.8693 155.828 17.816C156.094 17.752 156.34 17.6667 156.564 17.56L156.628 19.464C156.457 19.5813 156.26 19.688 156.036 19.784C155.812 19.88 155.572 19.9547 155.316 20.008C155.07 20.0507 154.82 20.072 154.564 20.072C153.998 20.072 153.508 19.9973 153.092 19.848C152.686 19.688 152.372 19.432 152.148 19.08C151.924 18.728 151.812 18.248 151.812 17.64C151.812 17.1707 151.892 16.7067 152.052 16.248C152.212 15.7787 152.441 15.3573 152.74 14.984C153.038 14.6 153.39 14.296 153.796 14.072C154.201 13.8373 154.649 13.72 155.14 13.72C155.865 13.72 156.462 13.9333 156.932 14.36C157.412 14.776 157.764 15.3413 157.988 16.056C158.222 16.76 158.34 17.544 158.34 18.408C158.34 19.1653 158.228 19.8267 158.004 20.392C157.78 20.9467 157.513 21.384 157.204 21.704C156.948 21.9707 156.654 22.1947 156.324 22.376C155.993 22.5573 155.588 22.7013 155.108 22.808C154.638 22.904 154.057 22.9733 153.364 23.016C152.681 23.0587 151.854 23.08 150.884 23.08ZM156.5 12.264C156.19 12.264 155.924 12.1573 155.7 11.944C155.486 11.72 155.38 11.4587 155.38 11.16C155.38 10.8507 155.486 10.584 155.7 10.36C155.924 10.136 156.19 10.024 156.5 10.024C156.798 10.024 157.054 10.136 157.268 10.36C157.481 10.584 157.588 10.8507 157.588 11.16C157.588 11.4587 157.481 11.72 157.268 11.944C157.054 12.1573 156.798 12.264 156.5 12.264ZM153.732 12.248C153.422 12.248 153.156 12.1413 152.932 11.928C152.718 11.704 152.612 11.4427 152.612 11.144C152.612 10.8347 152.718 10.568 152.932 10.344C153.156 10.12 153.422 10.008 153.732 10.008C154.03 10.008 154.286 10.12 154.5 10.344C154.713 10.568 154.82 10.8347 154.82 11.144C154.82 11.4427 154.713 11.704 154.5 11.928C154.286 12.1413 154.03 12.248 153.732 12.248Z" fill="white"/>
<path d="M17.373 17.5L27.6112 7.54071V27.4593L17.373 17.5Z" fill="#F26530"/>
</svg>
