<?xml version="1.0" encoding="utf-8"?>
<!-- Generator: Adobe Illustrator 27.0.0, SVG Export Plug-In . SVG Version: 6.00 Build 0)  -->
<svg version="1.1" id="Layer_1" xmlns="http://www.w3.org/2000/svg" xmlns:xlink="http://www.w3.org/1999/xlink" x="0px" y="0px"
	 viewBox="0 0 86 39" style="enable-background:new 0 0 86 39;" xml:space="preserve">
<style type="text/css">
	.st0{fill:#6AA664;}
	.st1{fill:#FFFFFF;}
</style>
<path class="st0" d="M0,0l86,0v39H0l11.1-19.5L0,0z"/>
<g>
	<path class="st1" d="M30.6,20.2h2.3v3.3h-2.2c-0.5,0-0.8,0-1.2-0.1c-0.3,1.2-1.1,2.3-2.3,3.1c-1,0.7-2.2,1-3.5,1
		c-2,0-3.6-0.7-4.8-1.9c-0.8-1-1.2-2.2-1.2-3.5c0-1,0.2-1.9,0.7-2.7l3.3-0.8c-0.5,0.8-0.7,1.8-0.7,2.9c0,0.9,0.2,1.6,0.7,2
		c0.5,0.5,1.1,0.7,2,0.7c0.8,0,1.5-0.2,2-0.7c0.5-0.5,0.8-1.1,0.8-1.9v-9.2l3.3-1.8v9v0.1c0,0.3,0.1,0.5,0.2,0.6
		C30,20.2,30.3,20.2,30.6,20.2z"/>
	<path class="st1" d="M44.8,20.2h1.9v3.3h-2.2c-0.8,0-1.6-0.2-2.2-0.6c-0.8,0.7-1.7,0.9-2.7,0.9c-1,0-2-0.3-2.7-0.9
		c-0.6,0.3-1.2,0.6-2.2,0.6h-2.2v-3.3h1.9c0.3,0,0.6-0.1,0.7-0.2s0.2-0.3,0.2-0.7v-0.6c0-1.6,0.5-2.8,1.2-3.7
		c0.8-0.8,1.8-1.2,3.1-1.2c1.5,0,2.5,0.6,3.3,1.6c0.7,0.9,1,2,1,3.4v0.6c0,0.3,0.1,0.6,0.2,0.7C44.1,20.2,44.3,20.2,44.8,20.2z
		 M39.6,20.6c0.7,0,1-0.7,1-1.9c0-1.1-0.3-1.7-1-1.7c-0.7,0-1,0.6-1,1.7C38.5,19.9,38.9,20.6,39.6,20.6z"/>
	<path class="st1" d="M49,11.3c0,0.6-0.1,0.9-0.5,1.2c-0.3,0.3-0.7,0.5-1.2,0.5s-0.9-0.1-1.2-0.5c-0.3-0.3-0.5-0.7-0.5-1.2
		s0.1-0.9,0.5-1.2c0.3-0.3,0.7-0.5,1.2-0.5s0.9,0.1,1.2,0.5C48.8,10.4,49,10.8,49,11.3z M53.2,20.2h1.9v3.3h-2.2
		c-0.9,0-1.6-0.2-2.3-0.6c-0.7,0.5-1.4,0.6-2.3,0.6h-2.2v-3.3h1.9c0.3,0,0.6-0.1,0.7-0.2c0.1-0.1,0.2-0.3,0.2-0.7V16l3.3-1.8v5.1
		c0,0.3,0.1,0.6,0.2,0.7C52.6,20.2,52.8,20.2,53.2,20.2z M51,13c-0.5,0-0.9-0.1-1.2-0.5c-0.3-0.3-0.5-0.7-0.5-1.2s0.1-0.9,0.5-1.2
		c0.3-0.3,0.7-0.5,1.2-0.5c0.5,0,0.9,0.1,1.2,0.5c0.3,0.3,0.5,0.7,0.5,1.2s-0.1,0.9-0.5,1.2C51.9,12.9,51.5,13,51,13z"/>
	<path class="st1" d="M65.1,20.2h1.7v3.3h-1.9c-0.9,0-1.6-0.2-2.3-0.6c-0.6,0.3-1.4,0.6-2.3,0.6h-5.6v-3.3H60c0.3,0,0.6,0,0.7-0.1
		c0.1-0.1,0.2-0.3,0.2-0.6v-0.1c0-0.8-0.3-1.2-1-1.7c-0.5-0.2-0.9-0.3-1.6-0.3c-0.7,0-1.4,0.1-2.2,0.5v-3.2l3.7-4.2h3.3l-3.4,3.9
		c0.8,0.1,1.5,0.5,2.2,0.9c1.5,1,2.3,2.4,2.3,4.2c0,0.3,0.1,0.6,0.2,0.7C64.5,20.2,64.7,20.2,65.1,20.2z"/>
	<path class="st1" d="M69,17.7c0-1.2,0.5-2.3,1.2-2.9c0.7-0.6,1.6-0.9,2.7-0.9c1.4,0,2.5,0.6,3.3,1.6c0.7,0.9,1,1.9,1,3.3
		c0,1.5-0.5,2.7-1.2,3.6c-0.7,0.8-1.7,1.2-2.8,1.2c-1,0-1.9-0.1-2.5-0.5c-0.6,0.3-1.2,0.5-2,0.5h-2.2v-3.3h1.9
		c0.3,0,0.6-0.1,0.7-0.2c0.1-0.1,0.2-0.3,0.2-0.7v-1.7H69z M72.4,19.7c0,0.2,0.2,0.5,0.6,0.5c0.7,0,1-0.6,1-1.7c0-1-0.3-1.6-1-1.6
		c-0.3,0-0.6,0.2-0.6,0.7V19.7z"/>
</g>
</svg>
